<svg width="680" height="215" viewBox="0 0 680 215" fill="none" xmlns="http://www.w3.org/2000/svg">
<rect width="679.961" height="214.097" rx="20" fill="#F7F5FD" fill-opacity="0.5"/>
<g clip-path="url(#clip0_1338_271)">
<path d="M218.264 150.583C216.307 150.162 214.564 149.06 213.345 147.474C212.127 145.888 211.512 143.92 211.612 141.924C211.617 141.842 211.653 141.766 211.713 141.711C211.773 141.655 211.852 141.626 211.934 141.628C212.016 141.629 212.093 141.663 212.151 141.721C212.208 141.779 212.241 141.857 212.241 141.939C212.145 143.798 212.718 145.63 213.855 147.105C214.993 148.58 216.621 149.6 218.445 149.981C218.842 150.064 218.658 150.666 218.264 150.583Z" fill="white"/>
<path d="M221.364 167.562C224.822 165.376 227.327 161.968 228.381 158.019C228.485 157.628 229.088 157.81 228.984 158.201C227.879 162.308 225.265 165.849 221.662 168.116C221.319 168.332 221.023 167.776 221.364 167.562Z" fill="white"/>
<path d="M223.964 133.177C224.687 133.498 225.478 133.634 226.267 133.573C227.056 133.512 227.817 133.257 228.483 132.83C228.823 132.61 229.119 133.165 228.781 133.384C228.043 133.852 227.202 134.133 226.33 134.202C225.459 134.271 224.584 134.126 223.782 133.779C223.704 133.753 223.638 133.698 223.599 133.625C223.56 133.552 223.55 133.467 223.572 133.387C223.596 133.308 223.651 133.241 223.724 133.202C223.798 133.162 223.884 133.154 223.964 133.177Z" fill="white"/>
<path d="M273.008 146.657C261.597 149.227 250.935 155.456 243.235 164.275C241.571 166.181 240.048 168.26 239.053 170.6C238.1 172.888 237.778 175.389 238.121 177.843C238.394 180.138 238.94 182.454 238.65 184.775C238.344 187.222 236.947 189.253 234.953 190.661C232.513 192.384 229.599 193.128 226.723 193.757C223.531 194.456 220.204 195.13 217.578 197.202C217.26 197.453 216.889 196.945 217.206 196.695C221.774 193.09 228.037 193.659 233.069 191.067C235.418 189.858 237.415 187.934 237.935 185.261C238.39 182.923 237.829 180.534 237.532 178.213C237.221 175.776 237.328 173.422 238.18 171.097C239.05 168.718 240.495 166.575 242.103 164.634C245.784 160.26 250.13 156.492 254.982 153.467C260.501 149.983 266.576 147.468 272.944 146.031C273.338 145.942 273.4 146.568 273.008 146.657Z" fill="white"/>
<path d="M245.587 161.276C244.278 159.763 243.55 157.835 243.533 155.836C243.517 153.836 244.212 151.896 245.495 150.362C245.756 150.052 246.25 150.442 245.989 150.752C244.791 152.179 244.144 153.986 244.163 155.848C244.183 157.71 244.868 159.503 246.095 160.905C246.361 161.21 245.851 161.579 245.587 161.276Z" fill="white"/>
<path d="M237.829 176.698C241.907 177.032 245.961 175.818 249.183 173.299C249.502 173.049 249.873 173.557 249.554 173.806C246.197 176.422 241.975 177.676 237.732 177.32C237.328 177.285 237.426 176.664 237.829 176.698Z" fill="white"/>
<path d="M260.629 150.807C261.013 151.498 261.563 152.082 262.23 152.508C262.896 152.934 263.658 153.188 264.447 153.247C264.851 153.276 264.752 153.898 264.351 153.869C263.479 153.799 262.638 153.518 261.901 153.049C261.164 152.58 260.553 151.937 260.121 151.178C260.075 151.11 260.056 151.027 260.068 150.945C260.081 150.863 260.124 150.79 260.189 150.739C260.257 150.69 260.341 150.67 260.423 150.682C260.506 150.695 260.58 150.74 260.629 150.807Z" fill="white"/>
<path d="M409.671 28.2569C409.324 27.2319 404.965 23.7474 407.636 23.1617L409.826 26.0787L419.895 16.021L420.908 17.0326L409.671 28.2569Z" fill="#6C63FF"/>
<path d="M409.671 62.4571C409.324 61.4321 404.965 57.9476 407.636 57.3619L409.826 60.2789L419.895 50.2212L420.908 51.2328L409.671 62.4571Z" fill="#6C63FF"/>
<path d="M409.671 97.1461C409.324 96.121 404.965 92.6365 407.636 92.0509L409.826 94.9679L419.895 84.9102L420.908 85.9217L409.671 97.1461Z" fill="#6C63FF"/>
<path d="M400.399 69.1009C402.115 69.1009 403.506 67.7113 403.506 65.9972C403.506 64.2831 402.115 62.8936 400.399 62.8936C398.683 62.8936 397.292 64.2831 397.292 65.9972C397.292 67.7113 398.683 69.1009 400.399 69.1009Z" fill="#3F3D56"/>
<path d="M400.399 35.2713C402.115 35.2713 403.506 33.8817 403.506 32.1676C403.506 30.4535 402.115 29.064 400.399 29.064C398.683 29.064 397.292 30.4535 397.292 32.1676C397.292 33.8817 398.683 35.2713 400.399 35.2713Z" fill="#3F3D56"/>
<path d="M480.098 25.0288H430.072V25.6495H480.098V25.0288Z" fill="#3F3D56"/>
<path d="M401.953 105.163C403.669 105.163 405.06 103.774 405.06 102.06C405.06 100.346 403.669 98.9561 401.953 98.9561C400.237 98.9561 398.846 100.346 398.846 102.06C398.846 103.774 400.237 105.163 401.953 105.163Z" fill="#3F3D56"/>
<path d="M480.098 59.2295H430.072V59.8502H480.098V59.2295Z" fill="#3F3D56"/>
<path d="M480.098 93.9185H430.072V94.5392H480.098V93.9185Z" fill="#3F3D56"/>
<path d="M417.519 101.771H401.983V85.9419H412.548V86.5626H402.605V101.15H416.898V94.0114H417.519V101.771Z" fill="#3F3D56"/>
<path d="M417.519 67.0098H401.983V51.1812H412.548V51.8019H402.605V66.3891H416.898V59.2507H417.519V67.0098Z" fill="#3F3D56"/>
<path d="M417.519 31.628H401.983V15.7993H412.548V16.42H402.605V31.0072H416.898V23.8688H417.519V31.628Z" fill="#3F3D56"/>
<path d="M316.084 72.2149C316.084 72.2149 311.932 89.7261 317.007 89.7261C322.081 89.7261 334.076 69.9108 334.076 69.9108L329.924 64.8418L322.472 75.1769L322.081 69.9108L316.084 72.2149Z" fill="#A0616A"/>
<path d="M332.97 70.672C335.201 70.672 337.009 68.8656 337.009 66.6373C337.009 64.409 335.201 62.6025 332.97 62.6025C330.739 62.6025 328.931 64.409 328.931 66.6373C328.931 68.8656 330.739 70.672 332.97 70.672Z" fill="#A0616A"/>
<path d="M312.564 191.481L317.94 191.481L320.498 170.765L312.562 170.765L312.564 191.481Z" fill="#A0616A"/>
<path d="M312.374 197.084L328.908 197.083V196.874C328.908 195.169 328.23 193.534 327.023 192.329C325.816 191.123 324.18 190.446 322.473 190.446H322.472L319.452 188.157L313.817 190.446L312.374 190.446L312.374 197.084Z" fill="#2F2E41"/>
<path d="M254.728 184.781L259.538 187.178L271.088 169.784L263.988 166.245L254.728 184.781Z" fill="#A0616A"/>
<path d="M252.054 189.709L266.848 197.084L266.941 196.897C267.703 195.371 267.828 193.606 267.287 191.989C266.746 190.372 265.584 189.036 264.057 188.274L264.057 188.274L262.377 184.879L256.312 184.414L255.021 183.77L252.054 189.709Z" fill="#2F2E41"/>
<path d="M376.159 197.104H199.098V197.799H376.159V197.104Z" fill="#CCCCCC"/>
<path d="M277.802 103.983C277.802 103.983 275.653 129.789 275.192 135.319C274.876 138.785 274.1 142.195 272.885 145.457C272.885 145.457 271.963 147.3 271.963 149.144L261.505 168.127C261.505 168.127 258.31 170.473 258.771 172.316C259.233 174.16 256.845 175.265 256.845 175.265L267.857 177.385C267.857 177.385 267.396 176.003 268.78 175.542C270.164 175.081 271.265 171.084 271.265 171.084L286.726 145.918L297.798 122.877C297.798 122.877 304.257 143.614 305.641 145.918C305.641 145.918 310.715 171.724 311.638 174.028C312.561 176.332 313.022 176.332 312.561 177.254C312.099 178.175 312.099 179.097 312.561 179.558C313.022 180.019 321.787 179.558 321.787 179.558L319.481 146.84L315.329 107.67L294.107 101.218L277.802 103.983Z" fill="#2F2E41"/>
<path d="M298.579 42.3764C303.929 42.3764 308.267 38.0438 308.267 32.6992C308.267 27.3546 303.929 23.022 298.579 23.022C293.228 23.022 288.891 27.3546 288.891 32.6992C288.891 38.0438 293.228 42.3764 298.579 42.3764Z" fill="#A0616A"/>
<path d="M316.251 56.5189L304.718 49.5392C304.718 49.5392 304.399 45.205 301.112 45.0011C299.463 44.8987 296.987 44.7422 293.272 44.5029C292.487 44.4523 291.957 48.7432 291.057 48.6849L278.883 51.9107L280.728 83.2465C280.728 83.2465 277.96 95.6887 278.883 97.9928C279.805 100.297 276.576 101.219 277.499 101.679C278.421 102.14 277.499 105.366 277.499 105.366C277.499 105.366 295.491 114.582 315.329 107.67L313.483 101.679C313.735 100.896 313.782 100.062 313.62 99.2557C313.459 98.4494 313.094 97.6975 312.561 97.0711C312.561 97.0711 314.406 94.3062 312.099 92.0021C312.099 92.0021 313.022 87.8547 310.715 86.0114L310.254 79.5599L311.638 76.3342L316.251 56.5189Z" fill="#E6E6E6"/>
<path d="M290.172 38.2277L289.902 37.5994C289.867 37.5182 286.44 29.4277 289.477 24.4374C290.883 22.127 293.439 20.8227 297.075 20.5608C302.763 20.15 306.656 21.4978 308.649 24.564C308.984 25.0837 309.171 25.6837 309.193 26.301C309.215 26.9182 309.07 27.5299 308.773 28.0717C308.476 28.6136 308.039 29.0655 307.506 29.38C306.974 29.6946 306.367 29.8601 305.749 29.8592H305.672L304.627 28.5036L304.566 28.6355C304.188 29.4532 303.319 29.9009 302.301 29.8028C302.128 29.7904 301.975 29.9397 301.851 30.2591C301.81 30.3989 301.732 30.5249 301.625 30.624C301.518 30.723 301.386 30.7915 301.243 30.8221C300.491 30.9684 299.419 30.0221 298.939 29.5505C298.921 29.659 298.879 29.7624 298.817 29.8534C298.755 29.9445 298.674 30.0213 298.58 30.0785C298.075 30.3699 297.288 29.9892 297.062 29.868C295.262 30.2499 294.097 30.1477 293.598 29.5648C293.26 31.9557 292.534 36.2593 291.663 36.4978C291.572 36.5187 291.477 36.5098 291.391 36.4725C291.306 36.4351 291.234 36.3713 291.188 36.2903C290.978 36.0185 290.791 35.883 290.674 35.921C290.391 36.011 290.224 36.9428 290.2 37.5441L290.172 38.2277Z" fill="#2F2E41"/>
<path d="M311.177 56.9793L315.779 56.2324C319.094 59.4141 321.352 63.535 322.249 68.039C323.633 75.4121 324.094 76.7946 324.094 76.7946L313.022 79.5595L307.024 68.039L311.177 56.9793Z" fill="#E6E6E6"/>
<path d="M290.755 66.5696L287.911 102.583L360.49 108.301L363.334 72.2883L290.755 66.5696Z" fill="white"/>
<path d="M298.509 69.3598C296.733 68.0928 294.478 68.0012 293.616 68.0194C293.879 68.8389 294.696 70.9405 296.472 72.208C298.252 73.4781 300.505 73.567 301.365 73.5492C301.102 72.7301 300.285 70.6276 298.509 69.3598Z" fill="#6C63FF"/>
<path d="M305.516 92.2755L293.862 91.3573C293.517 91.3301 293.171 91.371 292.842 91.4776C292.514 91.5841 292.21 91.7543 291.947 91.9783C291.684 92.2023 291.468 92.4759 291.311 92.7832C291.154 93.0906 291.06 93.4259 291.033 93.7698C291.005 94.1138 291.046 94.4597 291.153 94.7879C291.26 95.1161 291.43 95.42 291.654 95.6824C291.879 95.9448 292.152 96.1605 292.46 96.3172C292.768 96.4739 293.104 96.5685 293.448 96.5957L305.102 97.5139C305.797 97.5687 306.486 97.3453 307.017 96.8929C307.547 96.4404 307.876 95.796 307.931 95.1013C307.986 94.4067 307.762 93.7187 307.309 93.1888C306.856 92.6588 306.211 92.3303 305.516 92.2755Z" fill="#6C63FF"/>
<path d="M360.473 68.788L295.132 63.639C294.372 63.5792 293.608 63.6695 292.883 63.9048C292.158 64.1401 291.486 64.5157 290.906 65.0103C290.327 65.5048 289.85 66.1086 289.504 66.787C289.158 67.4655 288.949 68.2055 288.889 68.9646L286.376 100.762C286.256 102.295 286.749 103.814 287.749 104.984C288.749 106.154 290.173 106.879 291.709 107.001L357.049 112.15C357.809 112.209 358.574 112.119 359.299 111.884C360.024 111.648 360.695 111.273 361.275 110.778C361.855 110.284 362.331 109.68 362.677 109.001C363.023 108.323 363.232 107.583 363.292 106.824L365.68 76.602L365.728 75.9845L365.804 75.0237C365.864 74.2646 365.774 73.5011 365.538 72.7769C365.303 72.0527 364.926 71.3819 364.431 70.8028C363.936 70.2238 363.332 69.7478 362.653 69.4021C361.973 69.0564 361.233 68.8477 360.473 68.788ZM358.543 96.4533L358.129 101.692C358.053 102.617 357.614 103.475 356.907 104.077C356.2 104.68 355.283 104.978 354.357 104.907L345.615 104.219C344.689 104.144 343.83 103.705 343.227 102.999C342.624 102.293 342.325 101.377 342.396 100.451L342.81 95.2126C342.886 94.2875 343.325 93.43 344.032 92.8275C344.739 92.225 345.656 91.9264 346.582 91.9969L355.321 92.6857C356.247 92.7616 357.106 93.2003 357.709 93.9061C358.313 94.6119 358.613 95.5276 358.543 96.4533ZM290.455 93.7217C290.523 92.874 290.924 92.0878 291.572 91.5356C292.219 90.9834 293.059 90.7102 293.908 90.776L305.562 91.6949C305.983 91.7274 306.393 91.8424 306.77 92.0334C307.146 92.2244 307.481 92.4876 307.756 92.808C308.03 93.1284 308.239 93.4997 308.37 93.9007C308.501 94.3017 308.551 94.7245 308.518 95.145C308.485 95.5654 308.37 95.9753 308.178 96.3512C307.987 96.7271 307.723 97.0615 307.402 97.3355C307.081 97.6095 306.709 97.8177 306.308 97.948C305.906 98.0784 305.483 98.1284 305.062 98.0953L305.056 98.0968L293.402 97.1779C292.981 97.1447 292.571 97.0289 292.195 96.8372C291.819 96.6454 291.485 96.3815 291.211 96.0604C290.937 95.7394 290.729 95.3676 290.6 94.9663C290.47 94.565 290.421 94.142 290.455 93.7217ZM292.95 67.8119L292.87 67.4862L293.205 67.4555C293.336 67.4415 296.436 67.1635 298.849 68.8852C301.262 70.607 302.002 73.6279 302.034 73.7543L302.111 74.0806L301.777 74.1143C301.302 74.1496 300.825 74.1464 300.351 74.1049C298.842 74.0167 297.385 73.5251 296.132 72.6816C293.719 70.9598 292.979 67.939 292.95 67.8119Z" fill="#6C63FF"/>
<path d="M348.74 99.9274L344.952 99.629C344.682 99.6082 344.415 99.6953 344.209 99.8713C344.003 100.047 343.875 100.298 343.854 100.567C343.832 100.837 343.919 101.104 344.095 101.31C344.271 101.516 344.521 101.644 344.791 101.666L348.579 101.965C348.849 101.985 349.116 101.898 349.322 101.722C349.528 101.546 349.656 101.296 349.677 101.026C349.698 100.756 349.612 100.489 349.436 100.283C349.26 100.077 349.01 99.9492 348.74 99.9274Z" fill="#6C63FF"/>
<path d="M355.732 100.478L351.945 100.18C351.675 100.159 351.407 100.246 351.202 100.422C350.996 100.598 350.868 100.848 350.847 101.118C350.826 101.388 350.912 101.655 351.088 101.861C351.264 102.067 351.514 102.195 351.784 102.217L355.571 102.515C355.841 102.536 356.109 102.449 356.314 102.273C356.52 102.097 356.648 101.847 356.669 101.577C356.69 101.307 356.604 101.04 356.428 100.834C356.252 100.628 356.002 100.5 355.732 100.478Z" fill="#6C63FF"/>
<path d="M348.947 97.3082L345.159 97.0098C344.889 96.9892 344.622 97.0764 344.416 97.2523C344.211 97.4283 344.083 97.6785 344.062 97.9482C344.04 98.2179 344.127 98.4851 344.303 98.6911C344.478 98.897 344.729 99.025 344.999 99.047L348.786 99.3454C349.056 99.3662 349.324 99.2791 349.53 99.1032C349.736 98.9272 349.863 98.6769 349.884 98.407C349.906 98.1372 349.819 97.8699 349.643 97.6639C349.468 97.4579 349.217 97.33 348.947 97.3082Z" fill="#6C63FF"/>
<path d="M355.939 97.8591L352.151 97.5606C351.881 97.5398 351.614 97.627 351.408 97.8029C351.202 97.9788 351.074 98.2292 351.053 98.499C351.032 98.7688 351.118 99.0361 351.294 99.2421C351.47 99.4481 351.72 99.576 351.99 99.5978L355.778 99.8962C356.048 99.9171 356.316 99.8299 356.522 99.654C356.727 99.4781 356.855 99.2277 356.876 98.9579C356.898 98.688 356.811 98.4208 356.635 98.2148C356.459 98.0088 356.209 97.8808 355.939 97.8591Z" fill="#6C63FF"/>
<path d="M349.154 94.6892L345.366 94.3907C345.096 94.3699 344.829 94.457 344.623 94.633C344.417 94.8089 344.289 95.0593 344.268 95.3291C344.247 95.5989 344.333 95.8662 344.509 96.0722C344.685 96.2782 344.935 96.4061 345.205 96.4279L348.993 96.7263C349.263 96.7469 349.53 96.6597 349.736 96.4838C349.942 96.3079 350.069 96.0576 350.091 95.7879C350.112 95.5182 350.025 95.251 349.85 95.0451C349.674 94.8391 349.424 94.7111 349.154 94.6892Z" fill="#6C63FF"/>
<path d="M356.146 95.2399L352.359 94.9414C352.089 94.9208 351.821 95.0081 351.616 95.184C351.41 95.3599 351.282 95.6102 351.261 95.8799C351.24 96.1496 351.326 96.4167 351.502 96.6227C351.678 96.8287 351.928 96.9567 352.198 96.9786L355.985 97.277C356.255 97.2977 356.523 97.2104 356.728 97.0345C356.934 96.8586 357.062 96.6083 357.083 96.3386C357.104 96.0689 357.018 95.8018 356.842 95.5958C356.666 95.3898 356.416 95.2618 356.146 95.2399Z" fill="#6C63FF"/>
<path d="M287.918 78.9976L287.869 79.6167L364.57 85.6351L364.619 85.0161L287.918 78.9976Z" fill="white"/>
<path d="M365.728 75.9843L365.68 76.6019L363.01 76.3927L334.569 74.1612L334.621 73.543L363.058 75.7751L365.728 75.9843Z" fill="#3F3D56"/>
<path d="M271.962 69.4215C271.962 69.4215 267.81 86.9327 272.885 86.9327C277.959 86.9327 289.954 67.1174 289.954 67.1174L285.802 62.0483L278.35 72.3835L277.959 67.1174L271.962 69.4215Z" fill="#A0616A"/>
<path d="M288.848 67.8786C291.079 67.8786 292.887 66.0722 292.887 63.8438C292.887 61.6155 291.079 59.8091 288.848 59.8091C286.617 59.8091 284.809 61.6155 284.809 63.8438C284.809 66.0722 286.617 67.8786 288.848 67.8786Z" fill="#A0616A"/>
<path d="M282.243 54.6756L279.474 51.9106C279.474 51.9106 273.938 55.1364 273.477 58.3621C273.016 61.5879 270.709 71.7259 270.709 71.7259L279.244 72.4172L282.012 68.2698L282.243 54.6756Z" fill="#E6E6E6"/>
</g>
<defs>
<clipPath id="clip0_1338_271">
<rect width="281" height="182" fill="white" transform="translate(199.098 15.7993)"/>
</clipPath>
</defs>
</svg>
