<svg width="187" height="155" viewBox="0 0 187 155" fill="none" xmlns="http://www.w3.org/2000/svg">
<rect width="187" height="155" rx="20" fill="#F7F5FD" fill-opacity="0.5"/>
<g clip-path="url(#clip0_1138_198)">
<path d="M25.8225 34.8417C26.3344 34.8417 26.7494 34.4267 26.7494 33.9148C26.7494 33.4028 26.3344 32.9878 25.8225 32.9878C25.3105 32.9878 24.8955 33.4028 24.8955 33.9148C24.8955 34.4267 25.3105 34.8417 25.8225 34.8417Z" fill="white"/>
<path d="M29.341 34.8417C29.853 34.8417 30.268 34.4267 30.268 33.9148C30.268 33.4028 29.853 32.9878 29.341 32.9878C28.8291 32.9878 28.4141 33.4028 28.4141 33.9148C28.4141 34.4267 28.8291 34.8417 29.341 34.8417Z" fill="white"/>
<path d="M32.8586 34.8417C33.3706 34.8417 33.7856 34.4267 33.7856 33.9148C33.7856 33.4028 33.3706 32.9878 32.8586 32.9878C32.3467 32.9878 31.9316 33.4028 31.9316 33.9148C31.9316 34.4267 32.3467 34.8417 32.8586 34.8417Z" fill="white"/>
<path d="M141.282 36.0923H23.5703V36.7465H141.282V36.0923Z" fill="white"/>
<path d="M141.383 22.0767H6.05762V108.745H141.383V22.0767Z" fill="#E6E6E6"/>
<path d="M141.326 22H6V27.7491H141.326V22Z" fill="#6C63FF"/>
<path d="M137.625 32.3862H10.0391V65.425H137.625V32.3862Z" fill="white"/>
<path d="M137.707 70.8545H10.1201V103.893H137.707V70.8545Z" fill="white"/>
<path d="M122.173 39.6953H53.123V42.7728H122.173V39.6953Z" fill="#E6E6E6"/>
<path d="M77.7425 47.3887H53.123V50.4661H77.7425V47.3887Z" fill="#E6E6E6"/>
<path d="M102.17 55.0825H53.123V58.16H102.17V55.0825Z" fill="#E6E6E6"/>
<path d="M47.9299 87.2047C47.9335 89.4453 47.2813 91.638 46.0536 93.5123C45.7963 93.9075 45.5144 94.2862 45.2094 94.646C44.4944 95.493 43.6615 96.2331 42.7362 96.8435C42.4845 97.0103 42.2259 97.1664 41.9602 97.3119C40.5772 98.0768 39.0508 98.5469 37.4771 98.6925C37.1195 98.7275 36.7558 98.7441 36.389 98.7441C35.3836 98.7451 34.3824 98.6142 33.411 98.3547C32.8604 98.21 32.3218 98.023 31.8 97.7954C31.5333 97.6801 31.2726 97.5549 31.018 97.4196C30.4055 97.098 29.8236 96.721 29.2797 96.2936C29.0266 96.0966 28.7826 95.8889 28.5477 95.6706C27.1422 94.3683 26.0832 92.7364 25.4662 90.9223C24.8492 89.1083 24.6936 87.1691 25.0136 85.2798C25.3335 83.3906 26.1189 81.6108 27.2988 80.101C28.4787 78.5913 30.0161 77.3991 31.772 76.6322C33.5279 75.8652 35.4472 75.5476 37.3567 75.708C39.2661 75.8684 41.1055 76.5017 42.7089 77.5509C44.3122 78.6001 45.6291 80.032 46.5406 81.7174C47.4521 83.4029 47.9296 85.2888 47.9299 87.2049V87.2047Z" fill="#6C63FF"/>
<path d="M37.0973 81.8174H35.6826V92.5884H37.0973V81.8174Z" fill="white"/>
<path d="M41.7749 86.4956H31.0039V87.9103H41.7749V86.4956Z" fill="white"/>
<path d="M120.442 78.1631H51.3926V81.2406H120.442V78.1631Z" fill="#E6E6E6"/>
<path d="M76.0121 85.8564H51.3926V88.9339H76.0121V85.8564Z" fill="#E6E6E6"/>
<path d="M100.439 93.5503H51.3926V96.6278H100.439V93.5503Z" fill="#E6E6E6"/>
<path d="M14.95 25.8107C15.4753 25.8107 15.9011 25.3849 15.9011 24.8597C15.9011 24.3345 15.4753 23.9087 14.95 23.9087C14.4248 23.9087 13.999 24.3345 13.999 24.8597C13.999 25.3849 14.4248 25.8107 14.95 25.8107Z" fill="white"/>
<path d="M18.5604 25.8107C19.0856 25.8107 19.5114 25.3849 19.5114 24.8597C19.5114 24.3345 19.0856 23.9087 18.5604 23.9087C18.0352 23.9087 17.6094 24.3345 17.6094 24.8597C17.6094 25.3849 18.0352 25.8107 18.5604 25.8107Z" fill="white"/>
<path d="M11.3309 25.8107C11.8561 25.8107 12.2819 25.3849 12.2819 24.8597C12.2819 24.3345 11.8561 23.9087 11.3309 23.9087C10.8057 23.9087 10.3799 24.3345 10.3799 24.8597C10.3799 25.3849 10.8057 25.8107 11.3309 25.8107Z" fill="white"/>
<path d="M43.3079 58.1867C42.2992 57.6551 41.2464 57.2121 40.1611 56.8624L40.0228 55.3317L34.4108 54.7271L33.6975 56.6836L31.6835 57.4394C31.6114 57.4667 31.5428 57.5025 31.4791 57.5458H31.4769C31.3646 57.6218 31.2688 57.7199 31.1956 57.8341C31.1224 57.9483 31.0732 58.0762 31.0511 58.2101C31.0296 58.3432 31.0347 58.4792 31.0661 58.6103L31.1726 59.0468C31.3258 59.1383 31.4834 59.2256 31.6409 59.3087L31.741 59.3597C31.9709 59.479 32.2052 59.5918 32.4457 59.6961C32.4947 59.7174 32.5479 59.7387 32.5969 59.76C32.6011 59.7621 32.6032 59.7621 32.6075 59.7643C32.7204 59.8111 32.8331 59.8558 32.9481 59.8984C33.3258 60.0426 33.711 60.1663 34.102 60.2688C35.1001 60.5348 36.1285 60.6694 37.1614 60.6691C37.5382 60.6691 37.9108 60.652 38.2791 60.6159C39.1207 60.5382 39.9515 60.3704 40.7573 60.1155C40.7594 60.1155 40.7616 60.1134 40.7637 60.1134C41.2727 59.9512 41.7699 59.7542 42.2519 59.5237C42.254 59.5216 42.2582 59.5216 42.2604 59.5194C42.3689 59.4683 42.4733 59.413 42.5797 59.3597L42.6308 59.3342C42.7159 59.2895 42.8012 59.2448 42.8863 59.1979C43.0992 59.0808 43.3078 58.9574 43.5143 58.8254C43.5718 58.7913 43.6272 58.7551 43.6847 58.7168C43.7656 58.6636 43.8464 58.6082 43.9252 58.5507C43.7272 58.423 43.5208 58.3016 43.3079 58.1867Z" fill="#3F3D56"/>
<path d="M32.7761 59.13L32.4248 57.5439H31.5072C31.498 57.5441 31.4888 57.5448 31.4796 57.5461H31.4774C31.1477 57.574 30.8301 57.6837 30.5535 57.8654C30.3658 57.9852 30.199 58.1348 30.0596 58.3083C30.332 58.5148 30.6152 58.7064 30.9069 58.8895L30.9197 58.8959C31.0026 58.947 31.0879 58.998 31.173 59.047C31.3263 59.1386 31.4839 59.2259 31.6413 59.3089L31.7415 59.36C31.9714 59.4792 32.2056 59.592 32.4462 59.6964C32.4951 59.7177 32.5484 59.7389 32.5973 59.7602C32.6016 59.7624 32.6037 59.7624 32.6079 59.7645C32.7208 59.8113 32.8336 59.856 32.9486 59.8986L32.7761 59.13Z" fill="#3F3D56"/>
<path d="M36.9969 53.7594C39.2291 53.7594 41.0387 51.9498 41.0387 49.7176C41.0387 47.4854 39.2291 45.6758 36.9969 45.6758C34.7647 45.6758 32.9551 47.4854 32.9551 49.7176C32.9551 51.9498 34.7647 53.7594 36.9969 53.7594Z" fill="#FFB8B8"/>
<path d="M34.2833 47.7491C34.7017 48.2443 35.4098 48.384 36.0629 48.4413C37.59 48.5256 39.1215 48.4006 40.6147 48.0696C40.7072 48.9664 40.455 49.9333 40.9832 50.671C41.2308 49.7779 41.3747 48.8593 41.4122 47.9333C41.4517 47.536 41.3998 47.1349 41.2606 46.7608C41.1861 46.5732 41.0606 46.4103 40.8982 46.2906C40.7358 46.1709 40.5431 46.0991 40.3419 46.0835C40.643 45.855 40.9958 45.7042 41.3689 45.6444L40.0856 44.9995L40.4152 44.6611L38.0917 44.5189L38.7647 44.0914C37.7518 43.9522 36.7271 43.9199 35.7075 43.9949C35.234 44.0298 34.739 44.0964 34.3554 44.3708C33.9718 44.6451 33.7501 45.1903 33.9882 45.5931C33.6901 45.642 33.4093 45.7663 33.1726 45.9541C32.936 46.1419 32.7511 46.3871 32.6357 46.6663C32.4897 47.1101 32.4544 47.5829 32.533 48.0435C32.6205 48.7825 32.7923 49.509 33.0449 50.2089L34.2833 47.7491Z" fill="#2F2E41"/>
<path d="M48.3625 45.3359C47.7954 43.7068 46.8798 42.221 45.6795 40.982C44.4791 39.7431 43.023 38.781 41.4126 38.1626C39.8022 37.5443 38.0763 37.2847 36.3553 37.4019C34.6343 37.5191 32.9595 38.0104 31.4478 38.8414C29.9362 39.6723 28.6239 40.8231 27.6027 42.2133C26.5814 43.6035 25.8757 45.1998 25.5348 46.8908C25.1938 48.5817 25.2258 50.3268 25.6286 52.0041C26.0313 53.6814 26.7951 55.2507 27.8667 56.6026C27.9731 56.7367 28.0838 56.8708 28.1967 57.0007C28.2052 57.0092 28.2116 57.0177 28.2201 57.0262C28.4976 57.346 28.7926 57.6502 29.1036 57.9375C29.1846 58.012 29.2697 58.0886 29.3549 58.161C29.5166 58.3058 29.6828 58.4441 29.8552 58.5762C29.9233 58.6294 29.9893 58.6826 30.0596 58.7337C30.3321 58.9402 30.6152 59.1318 30.9069 59.3149L30.9197 59.3213C31.0027 59.3724 31.0879 59.4235 31.1731 59.4725C31.3263 59.564 31.4839 59.6513 31.6414 59.7343L31.7415 59.7854C31.9714 59.9046 32.2057 60.0175 32.4462 60.1218C32.4952 60.1431 32.5484 60.1644 32.5974 60.1857C32.6016 60.1878 32.6037 60.1878 32.608 60.1899C32.7209 60.2368 32.8337 60.2815 32.9486 60.3241C33.3263 60.4683 33.7115 60.592 34.1025 60.6945C35.1006 60.9605 36.129 61.0951 37.1619 61.0948C37.5388 61.0948 37.9113 61.0777 38.2796 61.0415C39.1212 60.9638 39.952 60.7961 40.7578 60.5412C40.7599 60.5412 40.7621 60.5391 40.7642 60.5391C41.2732 60.3769 41.7704 60.1799 42.2524 59.9494C42.2545 59.9472 42.2587 59.9472 42.2609 59.9451C42.3694 59.894 42.4738 59.8387 42.5802 59.7854L42.6313 59.7599C42.7164 59.7152 42.8017 59.6705 42.8868 59.6236C43.0997 59.5065 43.3084 59.383 43.5148 59.251C43.5723 59.217 43.6277 59.1808 43.6852 59.1425C43.7661 59.0892 43.8469 59.0339 43.9257 58.9764C44.03 58.904 44.1344 58.8295 44.2366 58.7529C44.2685 58.7294 44.3026 58.706 44.3345 58.6805C46.3291 57.1665 47.7931 55.0599 48.5167 52.6627C49.2403 50.2654 49.1863 47.7006 48.3625 45.3359ZM43.9428 58.1631C43.8725 58.2185 43.8001 58.2717 43.7277 58.3207C43.6574 58.3739 43.5872 58.425 43.5148 58.4718C43.453 58.5165 43.3913 58.5591 43.3275 58.5996L43.3083 58.6123C43.2614 58.6443 43.2147 58.6741 43.1678 58.7039C42.9911 58.8146 42.8122 58.921 42.6313 59.0232C42.6121 59.0339 42.5929 59.0445 42.5738 59.0552C42.4929 59.0999 42.412 59.1425 42.3312 59.1851C42.3205 59.1914 42.3077 59.1957 42.2971 59.2021L42.2843 59.2085C42.1821 59.2617 42.0777 59.3128 41.9734 59.3618C41.5709 59.5556 41.1563 59.7235 40.7322 59.8642C40.6768 59.8834 40.6215 59.9025 40.5662 59.9196C39.8035 60.1621 39.0169 60.322 38.2201 60.3965C37.8709 60.4284 37.5174 60.4454 37.1619 60.4454C36.185 60.4474 35.2121 60.32 34.2686 60.0665C33.7844 59.9401 33.3099 59.7793 32.8486 59.5853C32.8251 59.5747 32.7995 59.5661 32.7761 59.5555C32.7507 59.5449 32.7272 59.5363 32.7038 59.5257C32.6782 59.5151 32.6548 59.5044 32.6293 59.4916C32.4291 59.4043 32.2311 59.3085 32.0374 59.2085L31.9438 59.1595C31.7074 59.036 31.4754 58.904 31.2497 58.7635C31.1837 58.7231 31.1156 58.6805 31.0516 58.6358C31.0347 58.6251 31.0197 58.6145 31.0027 58.6038C30.8515 58.5038 30.7004 58.3995 30.5535 58.2909C30.4535 58.2164 30.3534 58.1418 30.2554 58.0652C30.0915 57.9417 29.9339 57.8097 29.7807 57.6735C29.6998 57.6053 29.621 57.5308 29.5444 57.4606C29.2425 57.1818 28.9568 56.8861 28.6885 56.5749C28.5991 56.4727 28.5118 56.3705 28.4288 56.2641C28.4099 56.243 28.3921 56.221 28.3755 56.1981C26.9923 54.4525 26.1602 52.3346 25.9856 50.1142C25.8109 47.8939 26.3015 45.6719 27.3948 43.7315C28.4881 41.7912 30.1346 40.2204 32.1242 39.2196C34.1139 38.2188 36.3565 37.8332 38.5662 38.1122C40.7758 38.3911 42.8523 39.3218 44.5308 40.7857C46.2094 42.2495 47.4138 44.1802 47.9907 46.3314C48.5675 48.4825 48.4905 50.7568 47.7696 52.8641C47.0487 54.9713 45.7164 56.8161 43.9428 58.1631Z" fill="#3F3D56"/>
<path d="M149.296 102.257C148.729 100.628 147.813 99.1418 146.613 97.9029C145.413 96.664 143.957 95.7019 142.346 95.0835C140.736 94.4652 139.01 94.2056 137.289 94.3228C135.568 94.44 133.893 94.9313 132.381 95.7623C130.87 96.5932 129.558 97.744 128.536 99.1342C127.515 100.524 126.809 102.121 126.468 103.812C126.127 105.503 126.159 107.248 126.562 108.925C126.965 110.602 127.729 112.172 128.8 113.523C128.907 113.658 129.017 113.792 129.13 113.922C129.139 113.93 129.145 113.939 129.154 113.947C129.431 114.267 129.726 114.571 130.037 114.858C130.118 114.933 130.203 115.01 130.288 115.082C130.45 115.227 130.616 115.365 130.789 115.497C131.125 115.762 131.477 116.009 131.84 116.236L131.853 116.242C132.089 116.389 132.33 116.525 132.575 116.655L132.675 116.706C132.905 116.826 133.139 116.938 133.38 117.043C133.429 117.064 133.482 117.085 133.531 117.107C133.535 117.109 133.537 117.109 133.542 117.111C134.028 117.313 134.527 117.482 135.036 117.615C136.034 117.881 137.063 118.016 138.095 118.016C138.472 118.016 138.845 117.999 139.213 117.962C140.055 117.885 140.886 117.717 141.691 117.462C141.693 117.462 141.696 117.46 141.698 117.46C142.207 117.298 142.704 117.101 143.186 116.87C143.188 116.868 143.192 116.868 143.194 116.866C143.303 116.815 143.407 116.76 143.514 116.706L143.565 116.681C143.65 116.636 143.735 116.591 143.82 116.545C144.033 116.427 144.242 116.304 144.448 116.172C144.506 116.138 144.561 116.102 144.619 116.063C144.806 115.94 144.991 115.808 145.17 115.674C145.202 115.65 145.236 115.627 145.268 115.601C147.263 114.087 148.727 111.981 149.45 109.584C150.174 107.186 150.12 104.622 149.296 102.257Z" fill="white"/>
<path d="M142.009 111.044C142.991 111.044 143.786 110.248 143.786 109.267C143.786 108.285 142.991 107.489 142.009 107.489C141.027 107.489 140.231 108.285 140.231 109.267C140.231 110.248 141.027 111.044 142.009 111.044Z" fill="#2F2E41"/>
<path d="M142.504 107.538C142.812 107.538 143.114 107.618 143.381 107.77C143.649 107.922 143.873 108.14 144.03 108.405C144.188 108.669 144.274 108.969 144.281 109.277C144.288 109.584 144.215 109.889 144.069 110.159C144.223 109.967 144.335 109.744 144.398 109.505C144.461 109.267 144.474 109.017 144.436 108.774C144.397 108.53 144.309 108.297 144.175 108.089C144.042 107.881 143.867 107.704 143.661 107.568C143.455 107.432 143.223 107.34 142.98 107.298C142.736 107.257 142.487 107.266 142.248 107.326C142.008 107.387 141.784 107.496 141.589 107.647C141.394 107.799 141.233 107.989 141.116 108.207C141.282 107.998 141.493 107.83 141.734 107.714C141.974 107.598 142.237 107.538 142.504 107.538H142.504Z" fill="#2F2E41"/>
<path d="M138.687 109.263C141.571 109.263 143.909 106.925 143.909 104.041C143.909 101.158 141.571 98.8198 138.687 98.8198C135.804 98.8198 133.466 101.158 133.466 104.041C133.466 106.925 135.804 109.263 138.687 109.263Z" fill="#2F2E41"/>
<path d="M134.59 100.802C135.489 99.7898 136.747 99.1671 138.097 99.0649C139.447 98.9628 140.784 99.3892 141.826 100.254C141.784 100.213 141.741 100.173 141.697 100.133C140.665 99.2091 139.309 98.7327 137.926 98.8087C136.544 98.8846 135.248 99.5068 134.324 100.538C133.4 101.57 132.923 102.926 132.999 104.309C133.075 105.692 133.697 106.988 134.729 107.912C134.739 107.92 134.749 107.929 134.759 107.938C134.803 107.977 134.848 108.015 134.894 108.052C133.913 107.119 133.333 105.841 133.276 104.488C133.219 103.136 133.69 101.814 134.59 100.802Z" fill="#2F2E41"/>
<path d="M138.643 109.219C140.501 109.219 142.006 107.713 142.006 105.856C142.006 103.998 140.501 102.493 138.643 102.493C136.786 102.493 135.28 103.998 135.28 105.856C135.28 107.713 136.786 109.219 138.643 109.219Z" fill="#A0616A"/>
<path d="M144.661 114.618V115.746C144.454 115.878 144.246 116.002 144.033 116.119C143.948 116.165 143.863 116.21 143.777 116.255L143.726 116.28C143.62 116.334 143.516 116.389 143.407 116.44C143.405 116.442 143.401 116.442 143.398 116.444C142.917 116.675 142.419 116.872 141.91 117.034C141.908 117.034 141.906 117.036 141.904 117.036C141.098 117.291 140.267 117.459 139.426 117.537C139.057 117.573 138.685 117.59 138.308 117.59C137.275 117.59 136.247 117.456 135.249 117.19C134.74 117.056 134.24 116.887 133.754 116.685C133.75 116.683 133.748 116.683 133.743 116.681C133.694 116.659 133.641 116.638 133.592 116.617C133.352 116.512 133.118 116.4 132.888 116.28L132.788 116.229C132.543 116.099 132.302 115.963 132.066 115.816L132.053 115.81C131.689 115.583 131.338 115.337 131.001 115.071C130.829 114.939 130.663 114.801 130.501 114.656C130.416 114.584 130.331 114.507 130.25 114.432C129.939 114.145 129.644 113.841 129.366 113.521C129.403 113.299 129.457 113.081 129.528 112.868L129.53 112.866C129.543 112.829 129.558 112.794 129.575 112.759C129.587 112.729 129.6 112.699 129.615 112.67C129.996 111.956 130.686 111.78 131.542 111.741C132.025 111.72 132.56 111.744 133.124 111.737C133.422 111.735 133.731 111.724 134.039 111.697C135.987 111.52 135.634 110.37 135.721 109.751C135.809 109.15 136.349 109.67 136.386 109.704L136.388 109.706C137.49 110.222 138.71 110.436 139.922 110.326C140.13 110.3 140.339 110.285 140.548 110.279C141.097 110.272 140.978 110.43 140.788 110.56C140.696 110.62 140.6 110.674 140.501 110.722C140.501 110.722 140.414 111.254 140.324 112.05C140.239 112.812 141.7 113.17 141.821 113.198C141.823 113.199 141.826 113.2 141.829 113.2C142.363 113.061 142.924 113.076 143.45 113.242H143.452C143.752 113.353 144.02 113.536 144.231 113.777C144.442 114.017 144.59 114.306 144.661 114.618Z" fill="#6C63FF"/>
<path d="M133.775 115.987C133.775 116.144 133.771 116.296 133.764 116.438C133.762 116.523 133.758 116.606 133.754 116.685C133.75 116.683 133.747 116.683 133.743 116.681C133.694 116.66 133.641 116.638 133.592 116.617C133.351 116.513 133.117 116.4 132.887 116.281L132.787 116.23C132.542 116.1 132.302 115.963 132.065 115.816C132.072 115.742 132.082 115.667 132.093 115.593C132.116 115.429 132.136 115.263 132.149 115.099C132.232 113.947 132.023 112.793 131.542 111.744V111.742C131.499 111.656 131.474 111.61 131.474 111.61C131.474 111.61 132.093 111.077 132.977 111.61C133.033 111.643 133.083 111.686 133.124 111.737C133.656 112.365 133.801 114.477 133.775 115.987Z" fill="#2F2E41"/>
<path d="M143.444 115.697C143.435 115.936 143.422 116.185 143.408 116.438V116.44C143.405 116.442 143.401 116.442 143.399 116.445C142.917 116.675 142.42 116.872 141.911 117.034C141.909 117.034 141.907 117.036 141.904 117.036L141.881 116.438L141.879 116.359L141.766 113.447C141.763 113.381 141.773 113.315 141.797 113.253C141.82 113.192 141.855 113.135 141.901 113.087C141.946 113.04 142.001 113.002 142.062 112.976C142.122 112.95 142.188 112.936 142.254 112.936H143.333C143.386 112.936 143.425 113.045 143.45 113.24V113.243C143.503 114.06 143.5 114.88 143.444 115.697Z" fill="#2F2E41"/>
<path d="M135.767 101.652V105.016H136.545L137.536 103.954L137.404 105.016H140.846L140.633 103.954L141.059 105.016H141.608V101.652H135.767Z" fill="#2F2E41"/>
<path d="M135.236 105.635C135.383 105.635 135.502 105.417 135.502 105.148C135.502 104.879 135.383 104.661 135.236 104.661C135.09 104.661 134.971 104.879 134.971 105.148C134.971 105.417 135.09 105.635 135.236 105.635Z" fill="#A0616A"/>
<path d="M142.051 105.635C142.197 105.635 142.316 105.417 142.316 105.148C142.316 104.879 142.197 104.661 142.051 104.661C141.904 104.661 141.785 104.879 141.785 105.148C141.785 105.417 141.904 105.635 142.051 105.635Z" fill="#A0616A"/>
<path d="M145.383 115.248C145.204 115.382 145.018 115.514 144.831 115.638C144.774 115.676 144.718 115.712 144.661 115.747C144.454 115.879 144.246 116.002 144.033 116.119C143.948 116.166 143.862 116.211 143.777 116.255V113.909C143.777 113.909 144.118 114.182 144.661 114.635C144.729 114.693 144.799 114.752 144.874 114.816C145.031 114.948 145.202 115.093 145.383 115.248Z" fill="#6C63FF"/>
<path d="M149.296 102.257C148.729 100.628 147.813 99.1418 146.613 97.9029C145.413 96.664 143.957 95.7019 142.346 95.0835C140.736 94.4652 139.01 94.2056 137.289 94.3228C135.568 94.44 133.893 94.9313 132.381 95.7623C130.87 96.5932 129.558 97.744 128.536 99.1342C127.515 100.524 126.809 102.121 126.468 103.812C126.127 105.503 126.159 107.248 126.562 108.925C126.965 110.602 127.729 112.172 128.8 113.523C128.907 113.658 129.017 113.792 129.13 113.922C129.139 113.93 129.145 113.939 129.154 113.947C129.431 114.267 129.726 114.571 130.037 114.858C130.118 114.933 130.203 115.01 130.288 115.082C130.45 115.227 130.616 115.365 130.789 115.497C131.125 115.762 131.477 116.009 131.84 116.236L131.853 116.242C132.089 116.389 132.33 116.525 132.575 116.655L132.675 116.706C132.905 116.826 133.139 116.938 133.38 117.043C133.429 117.064 133.482 117.085 133.531 117.107C133.535 117.109 133.537 117.109 133.542 117.111C134.028 117.313 134.527 117.482 135.036 117.615C136.034 117.881 137.063 118.016 138.095 118.016C138.472 118.016 138.845 117.999 139.213 117.962C140.055 117.885 140.886 117.717 141.691 117.462C141.693 117.462 141.696 117.46 141.698 117.46C142.207 117.298 142.704 117.101 143.186 116.87C143.188 116.868 143.192 116.868 143.194 116.866C143.303 116.815 143.407 116.76 143.514 116.706L143.565 116.681C143.65 116.636 143.735 116.591 143.82 116.545C144.033 116.427 144.242 116.304 144.448 116.172C144.506 116.138 144.561 116.102 144.619 116.063C144.806 115.94 144.991 115.808 145.17 115.674C145.202 115.65 145.236 115.627 145.268 115.601C147.263 114.087 148.727 111.981 149.45 109.584C150.174 107.186 150.12 104.622 149.296 102.257ZM144.876 115.084C144.806 115.139 144.734 115.193 144.661 115.242C144.591 115.295 144.521 115.346 144.448 115.393C144.387 115.437 144.325 115.48 144.261 115.52C144.208 115.557 144.154 115.591 144.101 115.625C143.925 115.735 143.746 115.842 143.565 115.944C143.546 115.955 143.527 115.965 143.507 115.976C143.426 116.021 143.346 116.063 143.265 116.106C143.254 116.112 143.241 116.117 143.231 116.123L143.218 116.129C143.116 116.183 143.011 116.234 142.907 116.283C142.504 116.477 142.09 116.644 141.666 116.785C141.61 116.804 141.555 116.823 141.5 116.84C140.737 117.083 139.95 117.243 139.154 117.317C138.804 117.349 138.451 117.366 138.095 117.366C137.118 117.368 136.146 117.241 135.202 116.987C134.718 116.861 134.243 116.7 133.782 116.506C133.733 116.487 133.684 116.466 133.637 116.447C133.612 116.436 133.588 116.425 133.563 116.413C133.363 116.325 133.165 116.229 132.971 116.129L132.877 116.08C132.641 115.957 132.409 115.825 132.183 115.684C132.1 115.633 132.017 115.58 131.936 115.525C131.681 115.357 131.432 115.176 131.189 114.986C131.025 114.863 130.867 114.731 130.714 114.594C130.633 114.526 130.554 114.452 130.478 114.381C130.176 114.103 129.89 113.807 129.622 113.496C129.533 113.394 129.445 113.291 129.362 113.185C129.343 113.164 129.326 113.142 129.309 113.119C127.926 111.373 127.094 109.255 126.919 107.035C126.744 104.815 127.235 102.593 128.328 100.652C129.422 98.7121 131.068 97.1413 133.058 96.1405C135.047 95.1397 137.29 94.7541 139.5 95.0331C141.709 95.312 143.786 96.2427 145.464 97.7066C147.143 99.1704 148.347 101.101 148.924 103.252C149.501 105.403 149.424 107.678 148.703 109.785C147.982 111.892 146.65 113.737 144.876 115.084Z" fill="#3F3D56"/>
<path d="M148.628 101.327C148.922 101.22 149.189 101.05 149.411 100.829C149.632 100.608 149.803 100.341 149.91 100.047C150.017 99.7529 150.058 99.4389 150.031 99.1271C150.003 98.8153 149.908 98.5133 149.751 98.2424L154.724 92.4849L150.804 91.9746L146.682 97.5203C146.245 97.8137 145.93 98.2575 145.798 98.7675C145.665 99.2776 145.725 99.8184 145.964 100.288C146.204 100.757 146.608 101.122 147.099 101.313C147.589 101.505 148.134 101.51 148.628 101.327Z" fill="#FFB8B8"/>
<path d="M176.659 102.544C176.865 102.308 177.018 102.031 177.105 101.73C177.192 101.43 177.213 101.114 177.165 100.804C177.117 100.495 177.002 100.2 176.827 99.9401C176.653 99.6802 176.424 99.4616 176.156 99.2998L177.737 91.8579L174.056 93.3011L173.119 100.147C172.877 100.615 172.815 101.155 172.945 101.666C173.075 102.177 173.388 102.622 173.824 102.918C174.261 103.213 174.79 103.338 175.313 103.269C175.835 103.2 176.314 102.942 176.659 102.544Z" fill="#FFB8B8"/>
<path d="M158.847 141.328L156.237 141.328L154.995 131.26L158.847 131.26L158.847 141.328Z" fill="#FFB8B8"/>
<path d="M159.513 143.858L151.097 143.858V143.751C151.097 143.321 151.181 142.895 151.346 142.498C151.511 142.1 151.752 141.739 152.056 141.435C152.36 141.131 152.721 140.89 153.119 140.725C153.516 140.56 153.942 140.476 154.372 140.476L159.513 140.476L159.513 143.858Z" fill="#2F2E41"/>
<path d="M171.621 141.328L169.011 141.328L167.77 131.26L171.622 131.26L171.621 141.328Z" fill="#FFB8B8"/>
<path d="M172.287 143.858L163.871 143.858V143.751C163.871 143.321 163.956 142.895 164.12 142.498C164.285 142.1 164.526 141.739 164.831 141.435C165.135 141.131 165.496 140.89 165.893 140.725C166.291 140.56 166.717 140.476 167.147 140.476L172.287 140.476L172.287 143.858Z" fill="#2F2E41"/>
<path d="M159.119 136.071L155.425 135.923C155.172 135.912 154.935 135.803 154.763 135.618C154.591 135.434 154.498 135.189 154.505 134.937L155.546 100.792L155.614 100.768C162.09 98.4252 167.447 98.6023 171.992 101.308L172.043 101.339L172.666 134.594C172.669 134.721 172.646 134.848 172.598 134.966C172.551 135.085 172.481 135.192 172.392 135.283C172.303 135.374 172.196 135.446 172.079 135.496C171.962 135.545 171.836 135.57 171.708 135.57H168.593C168.371 135.57 168.156 135.493 167.984 135.352C167.813 135.211 167.696 135.015 167.653 134.797L163.408 113.207C163.394 113.133 163.353 113.066 163.293 113.018C163.234 112.971 163.159 112.947 163.083 112.95C163.007 112.952 162.935 112.982 162.879 113.034C162.823 113.085 162.787 113.155 162.778 113.23L160.109 135.229C160.079 135.461 159.967 135.675 159.792 135.83C159.616 135.985 159.391 136.071 159.157 136.072C159.145 136.072 159.132 136.072 159.119 136.071Z" fill="#2F2E41"/>
<path d="M162.713 70.8482C165.601 70.8482 167.942 68.5071 167.942 65.6192C167.942 62.7313 165.601 60.3901 162.713 60.3901C159.825 60.3901 157.484 62.7313 157.484 65.6192C157.484 68.5071 159.825 70.8482 162.713 70.8482Z" fill="#FFB8B8"/>
<path d="M150.396 97.171C150.214 97.0993 150.059 96.9742 149.95 96.8121L148.94 95.3001C148.831 95.1362 148.775 94.9427 148.78 94.7459C148.784 94.549 148.849 94.3584 148.965 94.1996L153.039 88.6711L155.59 76.427C155.737 76.049 155.957 75.7036 156.237 75.4106C156.518 75.1176 156.853 74.8827 157.224 74.7194C157.595 74.5561 157.995 74.4675 158.401 74.4587C158.806 74.45 159.209 74.5212 159.587 74.6683C159.965 74.8155 160.31 75.0357 160.603 75.3163C160.896 75.5969 161.13 75.9325 161.293 76.3038C161.456 76.6751 161.545 77.0749 161.553 77.4804C161.561 77.8858 161.49 78.2889 161.342 78.6667L160.136 86.4592C159.771 88.8243 158.558 90.976 156.725 92.5142L151.363 97.0137C151.26 97.1001 151.14 97.1639 151.01 97.2009C150.881 97.2378 150.745 97.2472 150.612 97.2282C150.538 97.2177 150.465 97.1985 150.396 97.171Z" fill="#3F3D56"/>
<path d="M176.436 97.7254C176.252 97.7915 176.053 97.8001 175.865 97.75L174.107 97.2827C173.917 97.2317 173.747 97.1235 173.621 96.9727C173.494 96.822 173.417 96.636 173.399 96.4399L172.804 89.5988L166.629 78.722C166.49 78.3412 166.426 77.9366 166.443 77.5314C166.46 77.1261 166.556 76.7281 166.727 76.3602C166.898 75.9923 167.139 75.6616 167.438 75.3871C167.736 75.1126 168.086 74.8996 168.467 74.7604C168.848 74.6211 169.253 74.5583 169.658 74.5755C170.063 74.5928 170.461 74.6897 170.829 74.8608C171.196 75.0319 171.527 75.2739 171.801 75.5727C172.075 75.8716 172.288 76.2216 172.427 76.6027L176.67 83.2488C177.958 85.2658 178.47 87.682 178.11 90.048L177.058 96.9681C177.038 97.1012 176.99 97.2285 176.917 97.3417C176.844 97.455 176.748 97.5516 176.636 97.6255C176.573 97.6665 176.506 97.7001 176.436 97.7254Z" fill="#3F3D56"/>
<path d="M156.994 74.9055C157.892 73.9205 159 73.1498 160.236 72.6502C161.472 72.1505 162.804 71.9347 164.134 72.0187C164.222 72.0241 164.309 72.0302 164.395 72.0369C165.656 72.1366 166.881 72.5044 167.989 73.1156C169.096 73.7267 170.06 74.5673 170.817 75.581C171.586 76.6089 172.126 77.789 172.403 79.0427C172.679 80.2963 172.684 81.5944 172.419 82.8503C171.405 87.6499 171.661 92.6311 173.163 97.3011L174.566 101.657C174.611 101.796 174.623 101.944 174.602 102.089C174.581 102.235 174.526 102.373 174.443 102.494C174.36 102.614 174.25 102.714 174.122 102.786C173.994 102.858 173.852 102.899 173.705 102.907L166.534 103.293L164.699 100.123V103.391L155.982 103.86C155.965 103.861 155.948 103.861 155.93 103.861C155.798 103.861 155.667 103.834 155.546 103.781C155.425 103.728 155.316 103.65 155.227 103.553C155.137 103.456 155.068 103.341 155.025 103.216C154.982 103.091 154.965 102.958 154.976 102.826L155.961 90.6097L154.725 82.3125C154.525 80.9867 154.625 79.633 155.018 78.3511C155.411 77.0692 156.086 75.8917 156.994 74.9055Z" fill="#3F3D56"/>
<path d="M166.348 70.611C165.864 70.8895 163.95 71.0743 163.814 70.5326L163.811 70.5207C163.716 70.1238 163.795 69.7094 163.822 69.3022C163.849 68.8951 163.81 68.4478 163.532 68.1485C163.015 67.5904 162.096 67.8862 161.348 67.7451C160.911 67.6474 160.523 67.3935 160.259 67.0309C159.995 66.6683 159.872 66.2219 159.913 65.7752C159.924 65.6906 159.941 65.6058 159.959 65.5212C160.006 65.3066 160.003 65.0842 159.949 64.8713C159.895 64.6584 159.793 64.4608 159.65 64.2941C159.507 64.1274 159.328 63.9961 159.125 63.9105C158.923 63.8249 158.704 63.7873 158.485 63.8007C157.729 63.8439 156.914 64.0727 156.289 63.5132C155.806 63.0806 155.688 61.9543 155.9 61.3414C156.257 60.3113 158.543 59.772 159.541 59.4756C160.776 59.1189 162.074 59.0418 163.342 59.2499C164.61 59.4579 165.816 59.9459 166.871 60.6784C167.502 61.1227 168.09 61.6811 168.359 62.4041C168.628 63.1271 168.498 64.0392 167.892 64.5165C168.362 65.0138 168.693 65.6257 168.851 66.2911C169.01 66.9564 168.991 67.6518 168.796 68.3075C168.497 69.2718 167.069 70.1963 166.348 70.611Z" fill="#2F2E41"/>
<path d="M181.787 144.194H136.439C136.383 144.194 136.329 144.171 136.289 144.132C136.249 144.092 136.227 144.037 136.227 143.981C136.227 143.925 136.249 143.87 136.289 143.83C136.329 143.79 136.383 143.768 136.439 143.768H181.787C181.844 143.768 181.898 143.79 181.938 143.83C181.978 143.87 182 143.925 182 143.981C182 144.037 181.978 144.092 181.938 144.132C181.898 144.171 181.844 144.194 181.787 144.194Z" fill="#CCCCCC"/>
</g>
<defs>
<clipPath id="clip0_1138_198">
<rect width="176" height="122.194" fill="white" transform="translate(6 22)"/>
</clipPath>
</defs>
</svg>
