<svg width="187" height="155" viewBox="0 0 187 155" fill="none" xmlns="http://www.w3.org/2000/svg">
<rect width="187" height="155" rx="20" fill="#F7F5FD" fill-opacity="0.5"/>
<g clip-path="url(#clip0_1137_197)">
<path d="M150.577 83.3723L56.8221 128.265C56.1818 128.57 55.4593 128.579 54.8131 128.29C54.167 128 53.6499 127.435 53.3754 126.719L28.6427 62.0146C28.4426 61.4895 28.4368 60.8971 28.6265 60.3673C28.8162 59.8375 29.1859 59.4135 29.6545 59.1884L124.67 13.6924C125.148 13.4646 125.686 13.458 126.168 13.674C126.649 13.89 127.035 14.3109 127.239 14.8445L151.959 79.5147C152.232 80.2313 152.24 81.04 151.981 81.7632C151.722 82.4864 151.217 83.0651 150.577 83.3723Z" fill="#F2F2F2"/>
<path d="M146.242 81.4127L58.8647 123.251C57.5839 123.865 56.1244 123.271 55.6112 121.929L34.0737 65.5836C33.6931 64.588 34.1557 63.4083 35.1048 62.9538L123.657 20.5527C124.622 20.0907 125.722 20.5382 126.108 21.5502L147.635 77.8658C148.148 79.2082 147.523 80.7994 146.242 81.4127Z" fill="white"/>
<path d="M127.322 15.1633L28.7388 62.3677L28.213 60.9922C27.9392 60.273 27.9315 59.4617 28.1915 58.7362C28.4515 58.0107 28.958 57.4302 29.5999 57.1222L123.338 12.2379C123.98 11.9311 124.705 11.9219 125.354 12.2125C126.002 12.503 126.521 13.0696 126.797 13.7878L127.322 15.1633Z" fill="#6C63FF"/>
<path d="M32.3613 58.9838C32.7377 58.9838 33.0429 58.6422 33.0429 58.2209C33.0429 57.7996 32.7377 57.458 32.3613 57.458C31.9849 57.458 31.6797 57.7996 31.6797 58.2209C31.6797 58.6422 31.9849 58.9838 32.3613 58.9838Z" fill="white"/>
<path d="M34.7392 57.8446C35.1157 57.8446 35.4208 57.5031 35.4208 57.0817C35.4208 56.6604 35.1157 56.3188 34.7392 56.3188C34.3628 56.3188 34.0576 56.6604 34.0576 57.0817C34.0576 57.5031 34.3628 57.8446 34.7392 57.8446Z" fill="white"/>
<path d="M37.1191 56.7059C37.4956 56.7059 37.8007 56.3644 37.8007 55.9431C37.8007 55.5217 37.4956 55.1802 37.1191 55.1802C36.7427 55.1802 36.4375 55.5217 36.4375 55.9431C36.4375 56.3644 36.7427 56.7059 37.1191 56.7059Z" fill="white"/>
<path d="M76.3578 76.7889L64.7051 82.3686C64.0648 82.6742 63.3423 82.6831 62.6962 82.3933C62.05 82.1035 61.5329 81.5386 61.2584 80.8227L54.8259 63.9944C54.5529 63.2777 54.5449 62.4691 54.8039 61.7459C55.0628 61.0227 55.5675 60.444 56.2072 60.1367L67.8599 54.5571C68.5002 54.2515 69.2227 54.2426 69.8688 54.5324C70.515 54.8222 71.032 55.3871 71.3066 56.103L77.7391 72.9313C78.0121 73.648 78.0201 74.4566 77.7611 75.1798C77.5022 75.903 76.9975 76.4817 76.3578 76.7889Z" fill="#F2F2F2"/>
<path d="M96.0746 67.3475L84.4219 72.9272C83.7816 73.2328 83.0591 73.2417 82.4129 72.9519C81.7668 72.662 81.2497 72.0972 80.9752 71.3813L74.5427 54.553C74.2697 53.8363 74.2617 53.0277 74.5207 52.3045C74.7796 51.5813 75.2843 51.0026 75.9239 50.6953L87.5767 45.1157C88.217 44.8101 88.9395 44.8012 89.5856 45.091C90.2318 45.3808 90.7488 45.9457 91.0234 46.6616L97.4559 63.4899C97.7289 64.2066 97.7369 65.0152 97.4779 65.7384C97.219 66.4616 96.7143 67.0403 96.0746 67.3475Z" fill="#F2F2F2"/>
<path d="M115.791 57.9066L104.139 63.4863C103.498 63.7919 102.776 63.8008 102.13 63.511C101.484 63.2212 100.967 62.6563 100.692 61.9404L94.2595 45.1121C93.9865 44.3954 93.9785 43.5868 94.2375 42.8636C94.4964 42.1404 95.0011 41.5617 95.6408 41.2544L107.294 35.6748C107.934 35.3692 108.656 35.3603 109.302 35.6501C109.949 35.9399 110.466 36.5047 110.74 37.2207L117.173 54.049C117.446 54.7656 117.454 55.5743 117.195 56.2974C116.936 57.0206 116.431 57.5994 115.791 57.9066Z" fill="#F2F2F2"/>
<path d="M86.309 102.824L74.6563 108.404C74.016 108.709 73.2935 108.718 72.6473 108.428C72.0012 108.139 71.4841 107.574 71.2096 106.858L64.7771 90.0295C64.504 89.3129 64.4961 88.5043 64.755 87.7811C65.014 87.0579 65.5186 86.4792 66.1583 86.1719L77.8111 80.5923C78.4514 80.2866 79.1738 80.2778 79.82 80.5676C80.4662 80.8574 80.9832 81.4222 81.2578 82.1382L87.6902 98.9665C87.9633 99.6831 87.9712 100.492 87.7123 101.215C87.4534 101.938 86.9487 102.517 86.309 102.824Z" fill="#F2F2F2"/>
<path d="M106.026 93.3832L94.3731 98.9628C93.7328 99.2685 93.0103 99.2773 92.3641 98.9875C91.718 98.6977 91.2009 98.1329 90.9264 97.4169L84.4939 80.5886C84.2208 79.872 84.2129 79.0634 84.4718 78.3402C84.7308 77.617 85.2354 77.0383 85.8751 76.731L97.5279 71.1513C98.1682 70.8457 98.8906 70.8368 99.5368 71.1266C100.183 71.4165 100.7 71.9813 100.975 72.6972L107.407 89.5255C107.68 90.2422 107.688 91.0508 107.429 91.774C107.17 92.4972 106.665 93.0759 106.026 93.3832Z" fill="#F2F2F2"/>
<path d="M125.744 83.9418L114.091 89.5214C113.451 89.827 112.728 89.8359 112.082 89.5461C111.436 89.2563 110.919 88.6915 110.644 87.9755L104.212 71.1472C103.939 70.4306 103.931 69.6219 104.19 68.8988C104.449 68.1756 104.953 67.5968 105.593 67.2896L117.246 61.7099C117.886 61.4043 118.608 61.3954 119.255 61.6852C119.901 61.9751 120.418 62.5399 120.692 63.2558L127.125 80.0841C127.398 80.8008 127.406 81.6094 127.147 82.3326C126.888 83.0558 126.383 83.6345 125.744 83.9418Z" fill="#F2F2F2"/>
<path d="M156.374 143H54.399C53.7029 142.999 53.0356 142.689 52.5433 142.138C52.0511 141.587 51.7742 140.84 51.7734 140.061V69.6842C51.774 69.1134 51.9768 68.5662 52.3374 68.1626C52.698 67.7589 53.187 67.5319 53.697 67.5312H157.043C157.562 67.5319 158.059 67.7629 158.426 68.1735C158.793 68.5841 158.999 69.1408 159 69.7214V140.061C158.999 140.84 158.722 141.587 158.23 142.138C157.738 142.689 157.07 142.999 156.374 143Z" fill="#E6E6E6"/>
<path d="M153.077 139.29H58.0393C56.6461 139.29 55.5127 138.102 55.5127 136.642V75.3565C55.5127 74.2736 56.3526 73.3926 57.3849 73.3926H153.701C154.75 73.3926 155.604 74.2881 155.604 75.3888V136.642C155.604 138.102 154.47 139.29 153.077 139.29Z" fill="white"/>
<path d="M158.964 70.0506H51.7373V68.5545C51.7383 67.7728 52.0163 67.0234 52.5103 66.4708C53.0044 65.9183 53.674 65.6076 54.3725 65.6069H156.329C157.027 65.6076 157.697 65.9183 158.191 66.4708C158.685 67.0234 158.963 67.7728 158.964 68.5545V70.0506Z" fill="#6C63FF"/>
<path d="M56.5254 68.5961C56.9018 68.5961 57.207 68.2545 57.207 67.8332C57.207 67.4119 56.9018 67.0703 56.5254 67.0703C56.1489 67.0703 55.8438 67.4119 55.8438 67.8332C55.8438 68.2545 56.1489 68.5961 56.5254 68.5961Z" fill="white"/>
<path d="M59.1123 68.5961C59.4887 68.5961 59.7939 68.2545 59.7939 67.8332C59.7939 67.4119 59.4887 67.0703 59.1123 67.0703C58.7358 67.0703 58.4307 67.4119 58.4307 67.8332C58.4307 68.2545 58.7358 68.5961 59.1123 68.5961Z" fill="white"/>
<path d="M61.7011 68.5961C62.0776 68.5961 62.3828 68.2545 62.3828 67.8332C62.3828 67.4119 62.0776 67.0703 61.7011 67.0703C61.3247 67.0703 61.0195 67.4119 61.0195 67.8332C61.0195 68.2545 61.3247 68.5961 61.7011 68.5961Z" fill="white"/>
<path d="M147.932 90.5967H102.903C101.1 90.5967 99.6387 92.2324 99.6387 94.2502V94.2502C99.6387 96.268 101.1 97.9037 102.903 97.9037H147.932C149.734 97.9037 151.196 96.268 151.196 94.2502C151.196 92.2324 149.734 90.5967 147.932 90.5967Z" fill="#E6E6E6"/>
<path d="M147.932 102.688H102.903C101.1 102.688 99.6387 104.323 99.6387 106.341V106.341C99.6387 108.359 101.1 109.995 102.903 109.995H147.932C149.734 109.995 151.196 108.359 151.196 106.341C151.196 104.323 149.734 102.688 147.932 102.688Z" fill="#E6E6E6"/>
<path d="M147.932 114.779H102.903C101.1 114.779 99.6387 116.415 99.6387 118.432V118.432C99.6387 120.45 101.1 122.086 102.903 122.086H147.932C149.734 122.086 151.196 120.45 151.196 118.432C151.196 116.415 149.734 114.779 147.932 114.779Z" fill="#E6E6E6"/>
<path d="M95.4055 106.341C95.4055 110.216 94.3789 114.004 92.4555 117.225C90.5322 120.447 87.7984 122.958 84.6 124.441C81.4015 125.924 77.8821 126.312 74.4866 125.556C71.0912 124.8 67.9723 122.934 65.5243 120.194C63.0763 117.454 61.4092 113.963 60.7338 110.163C60.0584 106.363 60.405 102.424 61.7299 98.8439C63.0547 95.2641 65.2983 92.2044 68.1768 90.0517C71.0553 87.899 74.4395 86.75 77.9015 86.75C82.5434 86.7516 86.9948 88.8162 90.2771 92.4899C93.5594 96.1636 95.404 101.146 95.4055 106.341Z" fill="white"/>
<path d="M85.9917 109.694C85.8005 122.223 69.1485 122.221 68.959 109.693C69.1502 97.1643 85.8021 97.1663 85.9917 109.694Z" fill="#6C63FF"/>
<path d="M77.1358 113.582L77.127 113.226C79.3204 113.554 79.7928 110.511 77.5807 111.649L78.0857 107.519L78.401 107.567L77.9715 111.08C80.3006 110.692 79.4391 113.938 77.1358 113.582Z" fill="#2F2E41"/>
<path d="M81.675 107.87H79.9609V108.226H81.675V107.87Z" fill="#2F2E41"/>
<path d="M76.2638 107.87H74.5498V108.226H76.2638V107.87Z" fill="#2F2E41"/>
<path d="M80.2361 123.02C80.5703 120.497 77.9304 120.995 76.5332 120.97C76.308 120.971 76.0857 121.028 75.8826 121.137C75.6795 121.246 75.5007 121.405 75.3592 121.601C75.2178 121.797 75.1172 122.026 75.0648 122.271C75.0125 122.517 75.0096 122.772 75.0566 123.018C73.9752 123.393 72.9738 124.011 72.1143 124.835C75.7364 126.249 79.6724 126.298 83.3216 124.974C82.432 124.08 81.3791 123.413 80.2361 123.02Z" fill="#2F2E41"/>
<path d="M73.4716 105.185C75.0499 104.164 76.9639 104.947 78.5942 105.375C81.6874 106.44 86.025 105.107 86.4011 100.983C86.7926 97.1476 82.1048 95.01 80.6065 98.8273L81.0428 98.7635C76.1836 90.6809 67.731 90.9875 67.7866 102.1C67.7686 102.443 68.2461 102.442 68.2639 102.099C68.085 95.5512 71.957 91.075 77.4305 95.2832C78.6831 96.3061 79.6966 97.6609 80.6306 99.0332C81.2006 99.7481 81.3245 96.669 84.0528 97.4755C87.0553 98.7774 86.0756 103.589 83.3918 104.646C80.0759 106.542 76.4846 102.866 73.2307 104.723C73.1783 104.76 73.1408 104.819 73.1261 104.886C73.1114 104.953 73.1207 105.024 73.1519 105.084C73.1832 105.144 73.234 105.188 73.2937 105.207C73.3533 105.226 73.4171 105.218 73.4716 105.185Z" fill="#2F2E41"/>
<path d="M77.9023 126.466C73.3821 126.462 69.0293 124.551 65.7123 121.114C62.3952 117.677 60.3575 112.967 60.0057 107.923C59.6539 102.879 61.0137 97.8723 63.814 93.9008C66.6143 89.9294 70.6493 87.2853 75.1142 86.4959C79.5791 85.7065 84.1458 86.8298 87.9035 89.6418C91.6612 92.4538 94.3337 96.7478 95.3881 101.667C96.4425 106.587 95.8013 111.771 93.5922 116.185C91.3832 120.599 87.7688 123.919 83.4698 125.482C81.6719 126.136 79.7929 126.469 77.9023 126.466ZM77.9023 87.2843C74.5341 87.2838 71.2414 88.4012 68.4406 90.4953C65.6398 92.5893 63.4568 95.566 62.1676 99.0488C60.8784 102.532 60.541 106.364 61.1979 110.061C61.8549 113.759 63.4768 117.155 65.8585 119.821C68.2403 122.486 71.2748 124.302 74.5783 125.037C77.8818 125.772 81.306 125.395 84.4178 123.952C87.5295 122.509 90.1891 120.066 92.0601 116.931C93.9311 113.796 94.9294 110.111 94.929 106.341C94.9239 101.289 93.1283 96.4448 89.9363 92.8722C86.7443 89.2996 82.4165 87.29 77.9023 87.2843Z" fill="#3F3D56"/>
</g>
<defs>
<clipPath id="clip0_1137_197">
<rect width="131" height="131" fill="white" transform="translate(28 12)"/>
</clipPath>
</defs>
</svg>
