<svg width="187" height="155" viewBox="0 0 187 155" fill="none" xmlns="http://www.w3.org/2000/svg">
<rect width="187" height="155" rx="20" fill="#F7F5FD" fill-opacity="0.5"/>
<g clip-path="url(#clip0_1138_199)">
<path d="M88.9914 136.893C89.7509 137.206 90.5664 137.284 91.3593 137.121C92.1522 136.957 92.8957 136.557 93.5183 135.959C95.1038 134.399 95.601 131.83 96.0054 129.451L97.2018 122.413L94.6971 124.434C92.8957 125.888 91.0539 127.388 89.8067 129.494C88.5596 131.599 88.0155 134.474 89.0173 136.752" fill="#E4E4E4"/>
<path d="M89.3787 145.903C89.0634 143.212 88.7391 140.485 88.9607 137.764C89.1572 135.348 89.7862 132.988 91.0668 131.053C91.7465 130.027 92.5736 129.149 93.5109 128.457C93.7552 128.276 93.9802 128.73 93.7369 128.91C92.1151 130.111 90.8606 131.885 90.1544 133.976C89.3745 136.3 89.2493 138.835 89.3836 141.304C89.4648 142.798 89.6374 144.282 89.8107 145.764C89.8244 145.831 89.8158 145.901 89.7868 145.961C89.7577 146.021 89.7104 146.066 89.6542 146.086C89.597 146.104 89.536 146.095 89.4844 146.061C89.4329 146.027 89.3949 145.97 89.3789 145.903L89.3787 145.903Z" fill="#F2F2F2"/>
<path d="M91.6475 141.584C91.9732 142.165 92.4209 142.637 92.9476 142.955C93.4742 143.274 94.062 143.428 94.6543 143.404C96.1768 143.319 97.4456 142.074 98.5877 140.892L101.966 137.395L99.7303 137.27C98.1223 137.18 96.4727 137.095 94.9411 137.677C93.4094 138.259 91.9969 139.657 91.7169 141.515" fill="#E4E4E4"/>
<path d="M88.4875 147.451C90.0052 144.303 91.7655 140.805 94.9112 139.687C95.7858 139.378 96.7028 139.267 97.613 139.36C97.8999 139.389 97.8282 139.908 97.5419 139.879C96.0163 139.73 94.4936 140.202 93.2302 141.216C92.0144 142.186 91.0677 143.534 90.2666 144.964C89.7758 145.84 89.3362 146.753 88.8966 147.665C88.7561 147.956 88.3454 147.746 88.4875 147.451Z" fill="#F2F2F2"/>
<path d="M138.867 109.301H28V17H138.867V109.301Z" fill="white"/>
<path d="M37.0314 54.9097C36.7449 54.9097 36.4701 55.0431 36.2676 55.2805C36.065 55.5179 35.9512 55.8399 35.9512 56.1757C35.9512 56.5115 36.065 56.8335 36.2676 57.071C36.4701 57.3084 36.7449 57.4418 37.0314 57.4418H74.4713C74.7574 57.4411 75.0317 57.3075 75.2338 57.0701C75.436 56.8327 75.5495 56.5111 75.5495 56.1757C75.5495 55.8404 75.436 55.5187 75.2338 55.2813C75.0317 55.044 74.7574 54.9103 74.4713 54.9097H37.0314Z" fill="#6C63FF"/>
<path d="M37.0308 62.5059C36.7443 62.5052 36.4693 62.6379 36.2663 62.8748C36.0632 63.1117 35.9488 63.4335 35.9482 63.7692C35.9476 64.105 36.0609 64.4273 36.263 64.6653C36.4652 64.9032 36.7397 65.0373 37.0262 65.038H74.4983C74.7848 65.038 75.0596 64.9046 75.2622 64.6671C75.4647 64.4297 75.5785 64.1077 75.5785 63.7719C75.5785 63.4361 75.4647 63.1141 75.2622 62.8767C75.0596 62.6392 74.7848 62.5059 74.4983 62.5059H37.0308Z" fill="#6C63FF"/>
<path d="M37.0308 69.9937C36.7443 69.9929 36.4693 70.1257 36.2663 70.3626C36.0632 70.5995 35.9488 70.9213 35.9482 71.257C35.9476 71.5928 36.0609 71.9151 36.263 72.153C36.4652 72.391 36.7397 72.525 37.0262 72.5258H45.4585C45.745 72.5258 46.0198 72.3924 46.2224 72.1549C46.425 71.9175 46.5388 71.5955 46.5388 71.2597C46.5388 70.9239 46.425 70.6019 46.2224 70.3645C46.0198 70.127 45.745 69.9937 45.4585 69.9937H37.0308Z" fill="#6C63FF"/>
<path d="M138.867 109.301H28V17H138.867V109.301ZM29.8225 107.165H137.044V19.136H29.8225V107.165Z" fill="#E5E5E5"/>
<path d="M103.982 89.0195C103.467 89.0187 102.973 89.2576 102.608 89.6838C102.243 90.1099 102.037 90.6884 102.036 91.2921C102.035 91.8958 102.239 92.4753 102.602 92.9033C102.965 93.3312 103.459 93.5726 103.974 93.5743H122.528C122.783 93.5746 123.036 93.5159 123.272 93.4016C123.508 93.2873 123.722 93.1196 123.903 92.9081C124.084 92.6965 124.227 92.4454 124.325 92.1689C124.422 91.8925 124.473 91.5962 124.473 91.2969C124.473 90.9976 124.422 90.7013 124.325 90.4249C124.227 90.1484 124.084 89.8973 123.903 89.6858C123.722 89.4743 123.508 89.3066 123.272 89.1922C123.036 89.0779 122.783 89.0192 122.528 89.0195H103.982Z" fill="#E4E4E4"/>
<path d="M103.982 61.4404C103.467 61.4396 102.973 61.6785 102.608 62.1047C102.243 62.5308 102.037 63.1093 102.036 63.713C102.035 64.3167 102.239 64.8962 102.602 65.3242C102.965 65.7521 103.459 65.9935 103.974 65.9952H122.528C122.783 65.9955 123.036 65.9368 123.272 65.8225C123.508 65.7082 123.722 65.5405 123.903 65.3289C124.084 65.1174 124.227 64.8663 124.325 64.5898C124.422 64.3134 124.473 64.0171 124.473 63.7178C124.473 63.4185 124.422 63.1222 124.325 62.8458C124.227 62.5693 124.084 62.3182 123.903 62.1067C123.722 61.8951 123.508 61.7274 123.272 61.6131C123.036 61.4988 122.783 61.4401 122.528 61.4404H103.982Z" fill="#E4E4E4"/>
<path d="M37.0308 90.0742C36.8889 90.0739 36.7484 90.1063 36.6172 90.1696C36.486 90.2329 36.3668 90.3258 36.2663 90.4431C36.1657 90.5605 36.0859 90.6998 36.0313 90.8533C35.9768 91.0068 35.9485 91.1713 35.9482 91.3376C35.9479 91.5039 35.9756 91.6686 36.0296 91.8223C36.0836 91.976 36.1629 92.1158 36.263 92.2336C36.3631 92.3514 36.482 92.445 36.613 92.5089C36.7439 92.5729 36.8843 92.606 37.0262 92.6063H74.4983C74.7848 92.6063 75.0596 92.4729 75.2622 92.2355C75.4647 91.9981 75.5785 91.676 75.5785 91.3403C75.5785 91.0045 75.4647 90.6825 75.2622 90.445C75.0596 90.2076 74.7848 90.0742 74.4983 90.0742H37.0308Z" fill="#E4E4E4"/>
<path d="M37.0308 97.562C36.8889 97.5617 36.7484 97.5941 36.6172 97.6574C36.486 97.7207 36.3668 97.8136 36.2663 97.9309C36.1657 98.0483 36.0859 98.1876 36.0313 98.3411C35.9768 98.4946 35.9485 98.6591 35.9482 98.8254C35.9479 98.9917 35.9756 99.1564 36.0296 99.3101C36.0836 99.4638 36.1629 99.6036 36.263 99.7214C36.3631 99.8392 36.482 99.9328 36.613 99.9967C36.7439 100.061 36.8843 100.094 37.0262 100.094H45.4585C45.745 100.094 46.0198 99.9607 46.2224 99.7233C46.425 99.4859 46.5388 99.1638 46.5388 98.8281C46.5388 98.4923 46.425 98.1703 46.2224 97.9328C46.0198 97.6954 45.745 97.562 45.4585 97.562H37.0308Z" fill="#E4E4E4"/>
<path d="M37.0314 82.478C36.7449 82.478 36.4701 82.6114 36.2676 82.8488C36.065 83.0863 35.9512 83.4083 35.9512 83.7441C35.9512 84.0799 36.065 84.4019 36.2676 84.6393C36.4701 84.8767 36.7449 85.0101 37.0314 85.0101H74.4713C74.7574 85.0095 75.0317 84.8758 75.2338 84.6385C75.436 84.4011 75.5495 84.0794 75.5495 83.7441C75.5495 83.4087 75.436 83.0871 75.2338 82.8497C75.0317 82.6123 74.7574 82.4787 74.4713 82.478H37.0314Z" fill="#E4E4E4"/>
<path d="M37.0314 27.3413C36.7449 27.3413 36.4701 27.4747 36.2676 27.7121C36.065 27.9496 35.9512 28.2716 35.9512 28.6074C35.9512 28.9431 36.065 29.2652 36.2676 29.5026C36.4701 29.74 36.7449 29.8734 37.0314 29.8734H74.4713C74.7574 29.8728 75.0317 29.7391 75.2338 29.5017C75.436 29.2644 75.5495 28.9427 75.5495 28.6074C75.5495 28.272 75.436 27.9503 75.2338 27.713C75.0317 27.4756 74.7574 27.3419 74.4713 27.3413H37.0314Z" fill="#E4E4E4"/>
<path d="M37.0308 34.9375C36.8889 34.9372 36.7484 34.9696 36.6172 35.0329C36.486 35.0962 36.3668 35.1891 36.2663 35.3064C36.1657 35.4237 36.0859 35.5631 36.0313 35.7166C35.9768 35.8701 35.9485 36.0346 35.9482 36.2009C35.9479 36.3671 35.9756 36.5318 36.0296 36.6856C36.0836 36.8393 36.1629 36.9791 36.263 37.0969C36.3631 37.2147 36.482 37.3083 36.613 37.3722C36.7439 37.4362 36.8843 37.4693 37.0262 37.4696H74.4983C74.6402 37.4696 74.7806 37.4369 74.9117 37.3732C75.0428 37.3096 75.1618 37.2164 75.2622 37.0988C75.3625 36.9812 75.442 36.8417 75.4963 36.6881C75.5506 36.5344 75.5785 36.3698 75.5785 36.2036C75.5785 36.0373 75.5506 35.8727 75.4963 35.7191C75.442 35.5655 75.3625 35.4259 75.2622 35.3083C75.1618 35.1908 75.0428 35.0975 74.9117 35.0339C74.7806 34.9703 74.6402 34.9375 74.4983 34.9375H37.0308Z" fill="#E4E4E4"/>
<path d="M37.0308 42.4253C36.7443 42.4246 36.4693 42.5573 36.2663 42.7942C36.0632 43.0312 35.9488 43.3529 35.9482 43.6887C35.9476 44.0244 36.0609 44.3468 36.263 44.5847C36.4652 44.8226 36.7397 44.9567 37.0262 44.9574H45.4585C45.745 44.9574 46.0198 44.824 46.2224 44.5866C46.425 44.3491 46.5388 44.0271 46.5388 43.6913C46.5388 43.3556 46.425 43.0335 46.2224 42.7961C46.0198 42.5587 45.745 42.4253 45.4585 42.4253H37.0308Z" fill="#E4E4E4"/>
<path d="M103.982 33.8828C103.467 33.882 102.973 34.1209 102.608 34.547C102.243 34.9732 102.037 35.5517 102.036 36.1554C102.035 36.7591 102.239 37.3386 102.602 37.7665C102.965 38.1945 103.459 38.4358 103.974 38.4376H122.528C122.783 38.4379 123.036 38.3792 123.272 38.2648C123.508 38.1505 123.722 37.9828 123.903 37.7713C124.084 37.5598 124.227 37.3087 124.325 37.0322C124.422 36.7558 124.473 36.4594 124.473 36.1602C124.473 35.8609 124.422 35.5646 124.325 35.2881C124.227 35.0117 124.084 34.7605 123.903 34.549C123.722 34.3375 123.508 34.1698 123.272 34.0555C123.036 33.9412 122.783 33.8825 122.528 33.8828H103.982Z" fill="#E4E4E4"/>
<path d="M107.891 40.2226C109.816 40.2226 111.376 38.394 111.376 36.1384C111.376 33.8828 109.816 32.0542 107.891 32.0542C105.966 32.0542 104.406 33.8828 104.406 36.1384C104.406 38.394 105.966 40.2226 107.891 40.2226Z" fill="#CACACA"/>
<path d="M113.981 64.7051C113.942 65.0329 113.966 65.3667 114.049 65.683C114.132 65.9992 114.274 66.2901 114.463 66.5353C114.653 66.7805 114.886 66.974 115.147 67.1021C115.407 67.2303 115.688 67.2899 115.971 67.2769L117.821 71.9738L120.531 71.352L117.838 64.762C117.788 64.2079 117.566 63.6945 117.215 63.3192C116.863 62.944 116.406 62.7328 115.931 62.7258C115.456 62.7187 114.995 62.9164 114.635 63.2811C114.276 63.6459 114.043 64.1526 113.981 64.7051Z" fill="#FFB6B6"/>
<path d="M132.728 82.4798L125.178 78.1027L119.85 67.5049L116.126 69.6162L120.959 81.859L133.168 90.1193L132.728 82.4798Z" fill="#3F3D56"/>
<path d="M115.682 145.13L113.309 145.129L112.18 137.109L115.683 137.109L115.682 145.13Z" fill="#FFB6B6"/>
<path d="M116.288 147.826L108.635 147.825V147.712C108.635 146.786 108.949 145.898 109.507 145.243C110.066 144.589 110.824 144.221 111.614 144.221H111.614L116.288 144.221L116.288 147.826Z" fill="#2F2E41"/>
<path d="M139.374 140.027L137.718 142.02L132.027 137.372L134.472 134.431L139.374 140.027Z" fill="#FFB6B6"/>
<path d="M141.444 141.4L136.104 147.826L136.035 147.747C135.469 147.101 135.145 146.217 135.135 145.292C135.125 144.366 135.428 143.473 135.98 142.81L139.241 138.885L141.444 141.4Z" fill="#2F2E41"/>
<path d="M118.616 97.3965H116.975C112.707 102.862 109.449 109.302 107.406 116.313L105.445 123.043L112.435 140.194L116.796 140.285L111.811 122.076L116.833 114.271L117.086 129.962L133.25 139.891L136.485 134.29L123.332 125.861L125.572 112.515C125.572 112.515 130.079 108.11 127.455 101.224L118.616 97.3965Z" fill="#2F2E41"/>
<path d="M140.221 79.9303L133.4 76.4287L125.892 80.3281C125.892 80.3281 123.766 81.7455 125.121 85.3759L116.975 97.3966C116.975 97.3966 116.99 97.4016 127.228 101.224L136.464 91.6909C137.867 90.2434 138.943 88.413 139.599 86.3617C140.254 84.3104 140.468 82.1015 140.221 79.9303Z" fill="#3F3D56"/>
<path d="M139.077 76.325C141.703 76.325 143.832 73.8299 143.832 70.7521C143.832 67.6743 141.703 65.1792 139.077 65.1792C136.451 65.1792 134.322 67.6743 134.322 70.7521C134.322 73.8299 136.451 76.325 139.077 76.325Z" fill="#FFB6B6"/>
<path d="M145.234 63.3567C144.143 62.3162 142.451 62.0891 141.324 63.0765C139.359 61.8678 136.704 62.4983 135.295 64.5079C134.788 65.2311 134.429 66.2094 134.68 67.0979C134.931 67.9864 136.013 68.5087 136.576 67.846L136.566 68.119C137.074 68.715 137.426 69.4684 137.581 70.2909C137.736 71.1133 137.687 71.9705 137.441 72.7616C137.194 73.5528 136.76 74.2451 136.19 74.757C135.619 75.269 134.936 75.5794 134.22 75.6517C135.778 76.3894 137.336 77.1271 138.894 77.8649C139.55 78.1753 140.226 78.4906 140.933 78.4864C141.641 78.4821 142.394 78.0795 142.669 77.3157C142.866 78.0244 143.063 78.7331 143.26 79.4418C144.422 77.2763 145.377 74.968 146.109 72.5584C146.581 71.0051 146.962 69.3808 146.911 67.7331C146.86 66.0854 146.326 64.3972 145.234 63.3567Z" fill="#2F2E41"/>
<path d="M107.891 95.3593C109.816 95.3593 111.376 93.5307 111.376 91.2751C111.376 89.0195 109.816 87.1909 107.891 87.1909C105.966 87.1909 104.406 89.0195 104.406 91.2751C104.406 93.5307 105.966 95.3593 107.891 95.3593Z" fill="#CACACA"/>
<path d="M118.732 67.8017C120.656 67.8017 122.217 65.9731 122.217 63.7175C122.217 61.4619 120.656 59.6333 118.732 59.6333C116.807 59.6333 115.247 61.4619 115.247 63.7175C115.247 65.9731 116.807 67.8017 118.732 67.8017Z" fill="#6C63FF"/>
<path d="M118.822 62.436C118.783 62.7639 118.806 63.0977 118.89 63.4139C118.973 63.7301 119.115 64.0211 119.304 64.2663C119.494 64.5115 119.727 64.705 119.988 64.8331C120.248 64.9612 120.529 65.0209 120.811 65.0078L122.662 69.7047L125.372 69.0829L122.679 62.493C122.629 61.9389 122.407 61.4255 122.055 61.0502C121.704 60.6749 121.247 60.4637 120.772 60.4567C120.296 60.4497 119.835 60.6473 119.476 61.0121C119.117 61.3769 118.884 61.8836 118.822 62.436Z" fill="#FFB6B6"/>
<path d="M137.568 80.2108L130.018 75.8336L124.69 65.2358L120.966 67.3471L125.799 79.59L138.008 87.8502L137.568 80.2108Z" fill="#3F3D56"/>
<path d="M158.806 148H85.0452C84.9938 148 84.9446 147.976 84.9083 147.934C84.872 147.891 84.8516 147.833 84.8516 147.773C84.8516 147.713 84.872 147.655 84.9083 147.613C84.9446 147.57 84.9938 147.546 85.0452 147.546H158.806C158.858 147.546 158.907 147.57 158.943 147.613C158.979 147.655 159 147.713 159 147.773C159 147.833 158.979 147.891 158.943 147.934C158.907 147.976 158.858 148 158.806 148Z" fill="#CACACA"/>
</g>
<defs>
<clipPath id="clip0_1138_199">
<rect width="131" height="131" fill="white" transform="translate(28 17)"/>
</clipPath>
</defs>
</svg>
